# xmcd
#
# Track frame offsets:
#	150
#	16322
#	30766
#	48533
#	62323
#	83161
#	100846
#	119829
#	137823
#	151477
#	165174
#	180614
#	195225
#	214072
#	229775
#
# Disc length: 3210 seconds
#
# Revision: 1
# Processed by: cddbd v1.5.2PL0 Copyright (c) Steve Scherf et al.
# Submitted via: audiograbber 1.83.01
#
DISCID=b60c880f
DTITLE=John Egenes - Fretbuzz
DYEAR=2007
DGENRE=Country
TTITLE0=John Egenes - Rollin
TTITLE1=John Egenes - The Cowboy and The Lady
TTITLE2=John Egenes - Round The Bend
TTITLE3=Anji Sami - Shame On Me
TTITLE4=John Egenes - Lorraine
TTITLE5=John Egenes - I Walk Alone
TTITLE6=John Egenes - Sharon
TTITLE7=John Egenes - Final Straw
TTITLE8=John Egenes - Together She and I
TTITLE9=John Egenes - Motor Machine
TTITLE10=John Egenes - Little Pony Lullaby
TTITLE11=John Egenes - Prodical Son
TTITLE12=John Egenes - As Far As I Can Throw Her
TTITLE13=John Egenes - Kiwi Moon
TTITLE14=John Egenes - Escape Velocity
EXTD=
EXTT0=
EXTT1=
EXTT2=
EXTT3=
EXTT4=
EXTT5=
EXTT6=
EXTT7=
EXTT8=
EXTT9=
EXTT10=
EXTT11=
EXTT12=
EXTT13=
EXTT14=
PLAYORDER=
